<?xml version="1.0" encoding="UTF-8"?>
<!DOCTYPE svg  PUBLIC '-//W3C//DTD SVG 1.1//EN'  'http://www.w3.org/Graphics/SVG/1.1/DTD/svg11.dtd'>
<svg version="1.1" xmlns="http://www.w3.org/2000/svg">
<defs>
<font id="Graphik-Medium" horiz-adv-x="814">
<font-face font-family="Graphik Medium" font-weight="500" ascent="821" bbox="-27 -219 933 971" cap-height="715" descent="-179" panose-1="2 11 6 3 3 2 2 6 2 3" underline-position="-100" underline-thickness="50" unicode-range="U+0020-00FE" units-per-em="1000" x-height="523"/>
<missing-glyph/>
<glyph glyph-name="space" horiz-adv-x="238" unicode=" "/>
<glyph d="M152 -7q-47 0 -70 39q-10 18 -10 38q0 46 41 68q18 10 39 10q48 0 71 -40q10 -18 10 -38q0 -45 -41 -67q-19 -10 -40 -10zM104 215l-18 500h135l-19 -500h-98z" glyph-name="exclam" horiz-adv-x="305" unicode="!"/>
<glyph d="M70 458l-17 257h121l-17 -257h-87zM253 458l-18 257h121l-17 -257h-86z" glyph-name="quotedbl" horiz-adv-x="409" unicode='"'/>
<glyph d="M259 99l24 167h-83l-24 -167h-89l24 167h-77v98h92l16 110h-82v95h96l22 146h88l-21 -146h83l22 146h89l-22 -146h81v-95h-95l-16 -110h85v-98h-100l-24 -167h-89zM231 474l-16 -110h83l16 110h-83z" glyph-name="numbersign" horiz-adv-x="532" unicode="#"/>
<glyph d="M286 -135v126q-206 14 -243 189q-4 20 -6 41h124q10 -84 62 -113q27 -14 63 -19v225q-157 27 -202 106q-23 42 -23 100q0 102 87 160q58 37 138 43v90h67v-91q181 -17 215 -168q4 -17 6 -35h-118q-16 90 -100 105q-2 1 -3 1v-205q156 -25 205 -98q29 -45 29 -111 q0 -108 -86 -171q-61 -43 -148 -49v-126h-67zM464 199q0 57 -42 81q-25 13 -69 23v-214q78 11 103 69q8 20 8 41zM179 531q0 -55 40 -77q25 -14 67 -23v197q-81 -9 -102 -66q-5 -15 -5 -31z" glyph-name="dollar" horiz-adv-x="635" unicode="$"/>
<glyph d="M205 456q58 0 72 60q4 16 4 33q0 72 -51 89q-12 4 -25 4q-60 0 -74 -61q-3 -15 -3 -32q0 -79 58 -91q10 -2 19 -2zM204 375q-88 0 -139 66q-35 47 -35 107q0 88 68 139q48 35 107 35q86 0 137 -65q36 -46 36 -107q0 -90 -68 -141q-46 -34 -106 -34zM128 0l461 715h84 l-460 -715h-85zM597 71q58 0 72 60q4 16 4 33q0 72 -51 89q-12 4 -25 4q-60 0 -74 -61q-3 -15 -3 -32q0 -79 58 -91q10 -2 19 -2zM596 -10q-88 0 -139 67q-34 46 -34 106q0 88 68 139q47 35 106 35q86 0 137 -64q37 -47 37 -108q0 -90 -69 -141q-46 -34 -106 -34z" glyph-name="percent" horiz-adv-x="801" unicode="%"/>
<glyph d="M685 370l-117 -224l120 -146h-153l-60 73q-81 -82 -196 -82q-131 0 -195 81q-40 52 -40 123q0 121 126 194q17 9 35 18q-56 74 -56 141q0 101 88 147q48 26 109 26q95 0 147 -61q33 -40 33 -94q-2 -118 -149 -182l126 -154l73 140h109zM293 91q70 1 120 59l-152 185 q-71 -36 -86 -89q-5 -18 -5 -38q0 -84 71 -109q23 -8 52 -8zM267 547q1 -41 54 -105q75 35 90 82q5 17 5 37q0 48 -40 65q-14 6 -30 6q-56 0 -74 -50q-5 -16 -5 -35z" glyph-name="ampersand" horiz-adv-x="716" unicode="&amp;"/>
<glyph d="M70 458l-17 257h123l-17 -257h-89z" glyph-name="quotesingle" horiz-adv-x="229" unicode="'"/>
<glyph d="M213 -148q-166 198 -166 461q1 264 166 461h106q-152 -204 -152 -461q1 -259 152 -461h-106z" glyph-name="parenleft" horiz-adv-x="335" unicode="("/>
<glyph d="M17 -146q151 205 151 461q-1 257 -151 461h105q166 -198 166 -461q-1 -264 -166 -461h-105z" glyph-name="parenright" horiz-adv-x="335" unicode=")"/>
<glyph d="M149 394l-77 55l85 102l-120 23l27 89l114 -50l-13 130h100l-13 -130l114 50l26 -89l-121 -23l85 -102l-76 -55l-67 118z" glyph-name="asterisk" horiz-adv-x="429" unicode="*"/>
<glyph d="M219 96v198h-182v94h182v198h101v-198h183v-94h-183v-198h-101z" glyph-name="plus" horiz-adv-x="539" unicode="+"/>
<glyph d="M103 -123l-75 33l91 237l115 -46z" glyph-name="comma" horiz-adv-x="292" unicode=","/>
<glyph d="M56 229v100h240v-100h-240z" glyph-name="hyphen" horiz-adv-x="353" unicode="-"/>
<glyph d="M144 -7q-47 0 -69 40q-10 18 -10 38q0 47 41 69q18 10 38 10q48 0 71 -41q9 -18 9 -38q0 -47 -42 -69q-18 -9 -38 -9z" glyph-name="period" horiz-adv-x="289" unicode="."/>
<glyph d="M-6 -148l301 924h103l-302 -924h-102z" glyph-name="slash" horiz-adv-x="415" unicode="/"/>
<glyph d="M354 96q162 2 163 246v35q0 177 -94 227q-32 17 -71 17q-125 0 -157 -145q-10 -44 -10 -100v-36q0 -201 119 -237q24 -7 50 -7zM351 -10q-156 0 -237 119q-63 91 -63 230v36q0 190 111 285q78 65 189 65q156 0 237 -119q62 -91 62 -228v-36q0 -196 -113 -290 q-76 -62 -186 -62z" glyph-name="zero" horiz-adv-x="701" unicode="0"/>
<glyph d="M183 0v583l-151 -103v117l166 118h119v-715h-134z" glyph-name="one" horiz-adv-x="419" unicode="1"/>
<glyph d="M15 0v24l270 285q102 108 108 190q1 7 1 13q0 83 -68 104q-18 5 -39 5q-110 0 -128 -140v-2h-122q9 160 127 219q55 27 127 27q141 0 202 -92q34 -51 34 -119q0 -117 -130 -246l-10 -10l-159 -155h304v-103h-517z" glyph-name="two" horiz-adv-x="578" unicode="2"/>
<glyph d="M304 -10q-167 0 -234 110q-32 52 -35 121h121q11 -113 113 -129q16 -2 32 -2q121 0 134 93q2 12 2 23q-2 116 -129 117h-55v95h51q118 2 119 105q0 71 -62 93q-22 8 -49 8q-88 0 -120 -71q-10 -22 -13 -47h-118q6 114 95 175q66 44 158 44q134 0 199 -82q37 -48 37 -110 q-1 -112 -116 -156q103 -24 130 -114q8 -28 8 -59q0 -121 -106 -178q-67 -36 -162 -36z" glyph-name="three" horiz-adv-x="623" unicode="3"/>
<glyph d="M385 0v145h-354v47l316 523h167v-471h96v-99h-96v-145h-129zM173 244h214v370z" glyph-name="four" horiz-adv-x="641" unicode="4"/>
<glyph d="M291 -10q-174 0 -232 122q-19 42 -23 93h124q13 -81 67 -102q27 -10 63 -10q88 0 117 77q12 31 12 68q0 93 -67 127q-28 14 -62 14q-96 -1 -149 -62h-68l6 398h434v-105h-332l-1 -194q54 60 154 60q119 0 179 -90q41 -61 41 -150q0 -131 -98 -199q-69 -47 -165 -47z" glyph-name="five" horiz-adv-x="604" unicode="5"/>
<glyph d="M331 -10q-232 0 -272 235q-8 47 -8 100v17q0 217 117 319q75 64 179 64q161 0 214 -120q14 -31 19 -69h-124q-17 70 -75 83q-16 3 -35 3q-102 0 -142 -116q-19 -56 -21 -132q56 91 177 92q120 0 186 -84q49 -62 49 -149q0 -130 -97 -196q-69 -47 -167 -47zM329 88 q80 0 116 65q18 34 18 77q0 91 -65 127q-31 17 -69 17q-79 0 -117 -60q-21 -34 -21 -76q0 -98 71 -135q30 -15 67 -15z" glyph-name="six" horiz-adv-x="641" unicode="6"/>
<glyph d="M132 0l230 607h-333v108h500v-16l-260 -699h-137z" glyph-name="seven" horiz-adv-x="545" unicode="7"/>
<glyph d="M314 -10q-135 0 -211 73q-57 56 -57 139q0 111 96 165q18 10 38 17q-95 37 -105 129q-1 11 -1 20q0 99 92 154q65 38 148 38q117 0 187 -67q52 -51 52 -123q-1 -104 -106 -150q117 -42 131 -151q2 -14 2 -28q0 -119 -106 -178q-68 -38 -160 -38zM314 90q84 0 118 61 q15 28 15 63q0 80 -69 110q-29 12 -63 12q-80 0 -116 -56q-19 -29 -19 -67q0 -78 68 -109q30 -14 66 -14zM316 423q73 0 100 55q11 22 11 49q0 61 -55 89q-26 13 -58 13q-69 0 -99 -50q-14 -24 -14 -53q0 -65 59 -92q26 -11 56 -11z" glyph-name="eight" horiz-adv-x="627" unicode="8"/>
<glyph d="M302 -9q-171 0 -229 121q-15 34 -21 74h125q20 -87 110 -92h13q155 2 159 245q-56 -89 -176 -90q-123 0 -190 84q-47 62 -47 148q0 130 96 198q69 47 169 47q194 0 255 -172q24 -69 24 -160v-37q0 -246 -141 -329q-63 -37 -147 -37zM311 342q81 0 119 61q19 32 19 72 q0 99 -71 136q-31 16 -68 16q-81 0 -116 -67q-17 -33 -17 -75q0 -91 66 -127q30 -16 68 -16z" glyph-name="nine" horiz-adv-x="642" unicode="9"/>
<glyph d="M148 -7q-47 0 -69 40q-10 18 -10 38q0 47 41 69q18 10 38 10q48 0 71 -41q9 -18 9 -38q0 -47 -42 -69q-18 -9 -38 -9zM148 285q-47 0 -69 41q-10 18 -10 38q0 47 41 69q18 9 38 9q48 0 71 -40q9 -18 9 -38q0 -46 -40 -69q-19 -10 -40 -10z" glyph-name="colon" horiz-adv-x="297" unicode=":"/>
<glyph d="M91 -123l-74 33l91 237l114 -46zM163 285q-48 0 -71 41q-9 18 -9 38q0 47 42 69q18 9 38 9q47 0 70 -39q10 -19 10 -39q0 -46 -41 -69q-18 -10 -39 -10z" glyph-name="semicolon" horiz-adv-x="303" unicode=";"/>
<glyph d="M447 81l-398 228v26l398 228v-112l-234 -128l234 -131v-111z" glyph-name="less" horiz-adv-x="507" unicode="&lt;"/>
<glyph d="M39 185v91h434v-91h-434zM39 371v92h434v-92h-434z" glyph-name="equal" horiz-adv-x="513" unicode="="/>
<glyph d="M60 81v113l234 128l-234 131v111l399 -229v-25z" glyph-name="greater" horiz-adv-x="507" unicode="&gt;"/>
<glyph d="M175 215v38q0 71 67 141q10 11 34 34q53 53 64 83q6 15 6 30q0 77 -75 83q-7 1 -14 1q-70 0 -99 -64q-10 -22 -13 -49h-116q7 123 101 179q58 34 133 34q141 0 190 -92q20 -37 20 -83q0 -70 -66 -139q-9 -10 -22 -22q-60 -57 -76 -81q-20 -31 -22 -61v-32h-112zM230 -7 q-48 0 -72 40q-10 18 -10 37q0 46 41 68q20 10 41 10q47 0 70 -39q10 -19 10 -39q0 -45 -41 -67q-18 -10 -39 -10z" glyph-name="question" horiz-adv-x="516" unicode="?"/>
<glyph d="M460 -151q-203 0 -321 132q-100 113 -100 276q0 177 120 300q111 114 271 130q23 2 45 2q184 0 299 -110q105 -103 105 -255q0 -167 -101 -234q-46 -29 -98 -29q-103 0 -125 71q-2 7 -3 13q-38 -71 -112 -86q-16 -3 -31 -3q-98 0 -140 80q-22 43 -22 99q0 119 76 186 q53 47 121 47q88 -1 117 -65l7 57h108l-31 -260q-9 -73 46 -74q59 0 90 71q22 50 22 126q0 154 -111 236q-87 63 -217 63q-158 0 -259 -106q-97 -102 -97 -259q0 -159 99 -254q93 -87 243 -87q150 1 244 84h83q-60 -95 -194 -133q-64 -18 -134 -18zM439 141q54 0 86 54 q23 39 23 91q0 90 -79 96h-10q-55 0 -84 -59q-17 -37 -17 -85q0 -70 49 -91q15 -6 32 -6z" glyph-name="at" horiz-adv-x="917" unicode="@"/>
<glyph d="M27 0l239 715h174l236 -715h-138l-57 177h-273l-56 -177h-125zM345 606l-106 -332h211z" glyph-name="A" horiz-adv-x="703" unicode="A"/>
<glyph d="M82 0v715h256q233 -2 234 -186v-4q-2 -117 -113 -152q126 -27 141 -136q2 -16 2 -33v-4q0 -162 -166 -193q-36 -7 -79 -7h-275zM212 95h129q129 2 130 114v4q0 95 -98 108q-19 3 -41 3h-120v-229zM212 414h110q97 0 116 60q6 19 6 45v4q0 81 -81 94q-20 3 -43 3h-108 v-206z" glyph-name="B" horiz-adv-x="645" unicode="B"/>
<glyph d="M395 -10q-198 0 -289 138q-60 91 -60 225v8q0 167 107 271q97 94 240 94q170 0 252 -104q47 -61 55 -146h-135q-31 140 -171 144q-116 0 -172 -100q-36 -65 -36 -158v-8q0 -169 102 -229q46 -27 107 -27q126 0 168 97q11 25 15 54h130q-21 -170 -163 -231 q-66 -28 -150 -28z" glyph-name="C" horiz-adv-x="741" unicode="C"/>
<glyph d="M215 105h78q194 0 229 171q8 37 8 79v8q-2 246 -238 247h-77v-505zM82 0v715h217q232 0 323 -155q47 -82 47 -195v-9q0 -197 -132 -290q-94 -66 -240 -66h-215z" glyph-name="D" horiz-adv-x="714" unicode="D"/>
<glyph d="M82 0v715h447v-105h-314v-196h252v-100h-252v-209h331v-105h-464z" glyph-name="E" horiz-adv-x="584" unicode="E"/>
<glyph d="M82 0v715h443v-106h-310v-213h244v-103h-244v-293h-133z" glyph-name="F" horiz-adv-x="559" unicode="F"/>
<glyph d="M403 -10q-191 0 -287 130q-70 95 -70 233v8q0 166 107 269q100 96 250 96q169 0 252 -100q46 -58 56 -141h-133q-24 135 -173 136q-130 0 -187 -108q-34 -64 -34 -153v-8q0 -172 108 -231q48 -27 113 -27q142 0 181 113q10 31 12 67h-180v100h311v-66q0 -179 -123 -263 q-83 -55 -203 -55z" glyph-name="G" horiz-adv-x="775" unicode="G"/>
<glyph d="M82 0v715h133v-304h321v304h134v-715h-134v304h-321v-304h-133z" glyph-name="H" horiz-adv-x="751" unicode="H"/>
<glyph d="M86 0v715h134v-715h-134z" glyph-name="I" horiz-adv-x="307" unicode="I"/>
<glyph d="M148 -9q-72 0 -112 21v104q46 -18 92 -18q106 2 107 122v495h134v-498q0 -168 -130 -212q-41 -14 -91 -14z" glyph-name="J" horiz-adv-x="443" unicode="J"/>
<glyph d="M82 0v715h133v-324l274 325h143l-296 -342l311 -374h-157l-275 334v-334h-133z" glyph-name="K" horiz-adv-x="659" unicode="K"/>
<glyph d="M82 0v715h133v-609h305v-106h-438z" glyph-name="L" horiz-adv-x="551" unicode="L"/>
<glyph d="M82 0v715h178l188 -488l184 488h176v-715h-133v540l-213 -540h-43l-217 540v-540h-120z" glyph-name="M" horiz-adv-x="890" unicode="M"/>
<glyph d="M82 0v715h159l301 -517v517h121v-715h-138l-322 548v-548h-121z" glyph-name="N" horiz-adv-x="745" unicode="N"/>
<glyph d="M410 97q121 0 181 99q39 66 39 159v8q0 137 -83 208q-57 48 -139 48q-129 0 -188 -105q-35 -64 -35 -152v-8q0 -138 87 -210q59 -47 138 -47zM408 -10q-170 0 -272 114q-90 101 -90 249v8q0 161 106 265q102 99 256 99q166 0 268 -110q92 -101 92 -251v-8 q0 -164 -105 -268q-101 -98 -255 -98z" glyph-name="O" unicode="O"/>
<glyph d="M82 0v715h230q186 0 243 -117q22 -46 22 -104v-4q0 -153 -140 -200q-54 -18 -122 -18h-100v-272h-133zM215 368h97q120 0 133 99q2 11 2 23v4q-2 117 -135 118h-97v-244z" glyph-name="P" horiz-adv-x="609" unicode="P"/>
<glyph d="M644 -91l-98 105q-66 -24 -138 -24q-170 0 -272 114q-90 101 -90 249v8q0 162 106 265q103 98 256 98q166 0 268 -110q93 -100 93 -250v-8q0 -166 -109 -270q-8 -8 -15 -14l79 -85zM409 95q31 0 56 6l-70 76l81 76l88 -95q66 73 66 198v8q0 139 -84 208q-57 47 -138 47 q-130 0 -188 -105q-36 -64 -36 -152v-8q0 -142 90 -214q58 -45 135 -45z" glyph-name="Q" unicode="Q"/>
<glyph d="M82 0v715h240q190 0 247 -114q20 -42 20 -96v-4q0 -144 -147 -189q-6 -1 -12 -3l201 -309h-144l-187 289h-85v-289h-133zM215 384h107q135 2 136 114v4q0 96 -99 108q-18 2 -37 2h-107v-228z" glyph-name="R" horiz-adv-x="655" unicode="R"/>
<glyph d="M325 -10q-231 0 -278 174q-7 28 -9 58h128q11 -90 73 -117q35 -15 86 -15q84 0 119 54q16 26 16 56q0 56 -43 80q-33 18 -106 30q-166 22 -218 91q-34 46 -34 118q0 100 85 159q67 46 164 46q204 0 250 -154q7 -25 10 -53h-122q-15 89 -96 104q-19 3 -42 3 q-94 0 -117 -61q-6 -16 -6 -33q0 -52 38 -75q34 -19 110 -30q160 -22 214 -84q41 -48 41 -130q0 -104 -85 -167q-73 -54 -178 -54z" glyph-name="S" horiz-adv-x="635" unicode="S"/>
<glyph d="M225 0v610h-199v105h532v-105h-199v-610h-134z" glyph-name="T" horiz-adv-x="583" unicode="T"/>
<glyph d="M357 -10q-196 0 -257 146q-24 59 -24 136v443h134v-433q0 -135 69 -170q31 -15 79 -15q102 0 135 71q20 45 20 123v424h134v-435q0 -211 -161 -270q-57 -20 -129 -20z" glyph-name="U" horiz-adv-x="723" unicode="U"/>
<glyph d="M264 0l-241 715h139l186 -580l187 580h125l-242 -715h-154z" glyph-name="V" horiz-adv-x="683" unicode="V"/>
<glyph d="M204 0l-178 715h136l124 -525l139 525h110l142 -528l128 528h124l-179 -715h-133l-141 521l-145 -521h-127z" glyph-name="W" horiz-adv-x="955" unicode="W"/>
<glyph d="M36 0l230 367l-214 348h150l152 -254l151 254h137l-211 -345l229 -370h-152l-168 279l-168 -279h-136z" glyph-name="X" horiz-adv-x="695" unicode="X"/>
<glyph d="M254 0v310l-237 405h147l161 -296l157 296h130l-224 -406v-309h-134z" glyph-name="Y" horiz-adv-x="629" unicode="Y"/>
<glyph d="M22 0v18l365 592h-328v105h516v-17l-357 -591h347v-107h-543z" glyph-name="Z" horiz-adv-x="608" unicode="Z"/>
<glyph d="M79 -148v924h256v-91h-134v-742h134v-91h-256z" glyph-name="bracketleft" horiz-adv-x="377" unicode="["/>
<glyph d="M319 -148l-301 924h102l301 -924h-102z" glyph-name="backslash" horiz-adv-x="415" unicode="\"/>
<glyph d="M42 -148v91h134v742h-134v91h256v-924h-256z" glyph-name="bracketright" horiz-adv-x="377" unicode="]"/>
<glyph d="M36 402l166 313h113l166 -313h-112l-112 213l-113 -213h-108z" glyph-name="asciicircum" horiz-adv-x="516" unicode="^"/>
<glyph d="M-1 -159v74h412v-74h-412z" glyph-name="underscore" horiz-adv-x="410" unicode="_"/>
<glyph d="M163 601l-104 155h134l59 -155h-89z" glyph-name="grave" horiz-adv-x="400" unicode="`"/>
<glyph d="M209 -10q-116 0 -157 77q-18 34 -18 78q0 133 179 160q41 6 89 6h65v27q0 84 -55 100q-18 5 -40 5q-90 -2 -100 -82h-117q10 123 130 160q43 13 94 13q192 0 208 -162q1 -14 1 -29v-343h-119v64q-57 -74 -160 -74zM238 77q83 0 116 54q13 24 13 52v52h-62 q-146 -6 -151 -85q2 -72 84 -73z" glyph-name="a" horiz-adv-x="555" unicode="a"/>
<glyph d="M364 -10q-102 0 -157 72q-8 11 -14 22v-84h-121v765h121v-326q35 60 107 84q32 11 64 11q117 0 182 -90q50 -71 50 -176v-8q0 -151 -93 -224q-59 -46 -139 -46zM334 86q112 0 133 117q5 25 5 55v8q0 122 -79 160q-27 13 -60 13q-94 0 -129 -84q-15 -39 -15 -89v-8 q0 -140 101 -167q21 -5 44 -5z" glyph-name="b" horiz-adv-x="633" unicode="b"/>
<glyph d="M301 -10q-133 0 -207 90q-57 71 -57 175v8q0 137 95 214q72 57 169 57q145 0 206 -95q27 -43 33 -101h-117q-16 98 -120 99q-84 0 -121 -75q-21 -41 -21 -97v-8q0 -130 88 -164q26 -10 57 -10q75 0 109 57q14 25 17 55h111q-8 -112 -99 -168q-61 -37 -143 -37z" glyph-name="c" horiz-adv-x="575" unicode="c"/>
<glyph d="M268 -10q-121 0 -184 92q-46 69 -46 171v8q0 147 91 223q61 50 144 50q116 -1 167 -91v322h121v-765h-121v88q-32 -59 -102 -85q-35 -13 -70 -13zM298 86q94 0 130 82q16 39 16 91v8q0 144 -102 168q-19 4 -39 4q-103 0 -132 -101q-9 -33 -9 -74v-8q0 -124 81 -159 q26 -11 55 -11z" glyph-name="d" horiz-adv-x="633" unicode="d"/>
<glyph d="M302 -10q-137 0 -210 93q-55 71 -55 173v8q0 136 93 213q70 57 167 57q131 0 198 -91q49 -68 49 -173v-35h-383q5 -128 104 -151q19 -4 40 -4q105 1 120 80h117q-18 -119 -138 -156q-46 -14 -102 -14zM163 316h261q-10 129 -127 130q-86 0 -121 -81q-9 -23 -13 -49z" glyph-name="e" horiz-adv-x="580" unicode="e"/>
<glyph d="M93 0v432h-71v91h71v70q0 135 109 168q31 9 67 9q38 0 69 -10v-94q-26 9 -55 9q-68 -2 -69 -77v-75h119v-91h-119v-432h-121z" glyph-name="f" horiz-adv-x="362" unicode="f"/>
<glyph d="M295 -192q-196 0 -242 133q-7 20 -10 41h122q17 -81 129 -82q136 0 145 124q1 9 1 17v77q-35 -60 -106 -86q-32 -11 -65 -11q-113 0 -179 84q-53 68 -53 165v7q0 124 82 198q65 59 153 59q115 -1 168 -91v80h121v-484q-1 -160 -138 -211q-56 -20 -128 -20zM299 114 q85 0 123 69q22 39 22 91v7q0 108 -75 144q-30 14 -66 14q-92 0 -127 -79q-15 -36 -15 -81v-8q0 -95 66 -137q32 -20 72 -20z" glyph-name="g" horiz-adv-x="633" unicode="g"/>
<glyph d="M72 0v765h121v-325q34 69 117 88q25 6 52 6q133 0 168 -119q11 -38 11 -86v-329h-121v318q0 100 -76 113q-14 2 -28 2q-77 0 -108 -59q-15 -29 -15 -66v-308h-121z" glyph-name="h" horiz-adv-x="608" unicode="h"/>
<glyph d="M75 0v523h121v-523h-121zM134 609q-44 0 -64 36q-8 16 -8 33q0 43 38 62q16 8 34 8q44 0 64 -37q8 -16 8 -33q0 -42 -38 -61q-17 -8 -34 -8z" glyph-name="i" horiz-adv-x="271" unicode="i"/>
<glyph d="M3 -188v93q68 14 72 74v544h121v-541q0 -123 -96 -156q-40 -13 -97 -14zM134 609q-44 0 -64 36q-8 16 -8 33q0 43 38 62q16 8 34 8q44 0 64 -37q8 -16 8 -33q0 -42 -38 -61q-17 -8 -34 -8z" glyph-name="j" horiz-adv-x="271" unicode="j"/>
<glyph d="M72 0v765h121v-472l187 230h132l-203 -240l220 -283h-140l-196 257v-257h-121z" glyph-name="k" horiz-adv-x="540" unicode="k"/>
<glyph d="M75 0v765h121v-765h-121z" glyph-name="l" horiz-adv-x="271" unicode="l"/>
<glyph d="M72 0v523h121v-80q32 63 106 84q26 7 53 7q110 -1 148 -94q47 77 144 91q17 3 33 3q111 0 153 -93q21 -46 21 -110v-331h-121v323q-2 109 -93 110q-67 0 -99 -53q-16 -29 -16 -67v-313h-121v323q-2 109 -93 110q-67 0 -99 -53q-16 -29 -16 -67v-313h-121z" glyph-name="m" horiz-adv-x="918" unicode="m"/>
<glyph d="M72 0v523h121v-83q34 69 117 88q25 6 52 6q133 0 168 -119q11 -38 11 -86v-329h-121v318q0 100 -76 113q-14 2 -28 2q-77 0 -108 -59q-15 -29 -15 -66v-308h-121z" glyph-name="n" horiz-adv-x="608" unicode="n"/>
<glyph d="M306 84q93 0 128 85q16 39 16 89v7q0 119 -77 159q-30 15 -67 15q-95 0 -130 -85q-15 -39 -15 -88v-8q0 -120 78 -159q30 -15 67 -15zM305 -10q-130 0 -206 89q-62 72 -62 177v8q0 135 95 212q73 58 174 58q129 0 206 -89q62 -73 62 -178v-8q0 -137 -96 -213 q-73 -56 -173 -56z" glyph-name="o" horiz-adv-x="611" unicode="o"/>
<glyph d="M72 -179v702h121v-84q35 60 107 84q32 11 64 11q117 0 182 -90q50 -71 50 -176v-8q0 -151 -93 -224q-59 -46 -139 -46q-101 0 -156 70q-9 11 -15 22v-261h-121zM334 86q112 0 133 117q5 25 5 55v8q0 122 -79 160q-27 13 -60 13q-94 0 -129 -84q-15 -39 -15 -89v-8 q0 -140 101 -167q21 -5 44 -5z" glyph-name="p" horiz-adv-x="633" unicode="p"/>
<glyph d="M440 -179v265q-32 -57 -102 -83q-35 -13 -70 -13q-121 0 -184 92q-46 69 -46 171v8q0 147 91 223q61 50 144 50q116 -1 167 -91v80h121v-702h-121zM298 86q94 0 130 82q16 39 16 91v8q0 144 -102 168q-19 4 -39 4q-103 0 -132 -101q-9 -33 -9 -74v-8q0 -124 81 -159 q26 -11 55 -11z" glyph-name="q" horiz-adv-x="633" unicode="q"/>
<glyph d="M72 0v523h121v-98q48 95 148 105q11 1 22 1v-113q-128 -1 -159 -77q-11 -29 -11 -69v-272h-121z" glyph-name="r" horiz-adv-x="397" unicode="r"/>
<glyph d="M251 -10q-159 0 -204 105q-13 31 -15 68h114q8 -72 76 -82q13 -2 28 -2q93 1 94 67q0 40 -51 58q-23 7 -61 14q-129 21 -166 72q-23 33 -23 87q0 92 89 134q49 23 107 23q187 -2 205 -158h-112q-13 61 -71 69q-11 1 -22 1q-65 0 -80 -43q-3 -10 -3 -19q0 -35 38 -50 q24 -9 70 -17q123 -19 164 -62q32 -36 32 -98q0 -117 -111 -153q-43 -14 -98 -14z" glyph-name="s" horiz-adv-x="494" unicode="s"/>
<glyph d="M250 -9q-132 0 -154 111q-4 21 -4 44v286h-70v91h70v115h121v-115h115v-91h-115v-275q2 -66 60 -67q35 0 59 10v-96q-36 -13 -82 -13z" glyph-name="t" horiz-adv-x="369" unicode="t"/>
<glyph d="M247 -10q-124 0 -164 102q-16 41 -16 96v335h121v-321q0 -107 87 -114q8 -1 16 -1q72 0 105 55q17 30 17 70v311h121v-523h-121v82q-40 -78 -135 -90q-16 -2 -31 -2z" glyph-name="u" horiz-adv-x="605" unicode="u"/>
<glyph d="M209 0l-191 523h130l137 -399l135 399h119l-189 -523h-141z" glyph-name="v" horiz-adv-x="557" unicode="v"/>
<glyph d="M180 0l-160 523h129l104 -378l111 378h101l102 -378l109 378h118l-164 -523h-123l-97 352l-106 -352h-124z" glyph-name="w" unicode="w"/>
<glyph d="M21 0l182 268l-170 255h140l109 -169l108 169h127l-169 -246l187 -277h-141l-122 189l-125 -189h-126z" glyph-name="x" horiz-adv-x="556" unicode="x"/>
<glyph d="M130 -179l95 232l-207 470h131l139 -337l128 337h118l-285 -702h-119z" glyph-name="y" horiz-adv-x="553" unicode="y"/>
<glyph d="M17 0v14l277 413h-250v96h429v-17l-276 -409h268v-97h-448z" glyph-name="z" horiz-adv-x="493" unicode="z"/>
<glyph d="M354 -147q-215 0 -229 141q-3 34 4 76l17 96q13 69 -46 95q-27 11 -64 11v87q95 0 110 65q4 19 0 41l-17 96q-29 170 119 206q45 11 106 11v-89q-84 -2 -103 -43q-13 -29 -5 -84l17 -110q13 -87 -66 -124q-16 -8 -34 -12q84 -19 99 -88q5 -23 1 -48l-17 -109 q-13 -90 33 -115q26 -13 75 -14v-89z" glyph-name="braceleft" horiz-adv-x="396" unicode="{"/>
<glyph d="M84 -148v924h90v-924h-90z" glyph-name="bar" horiz-adv-x="259" unicode="|"/>
<glyph d="M42 -147v89q84 2 103 45q12 30 4 84l-16 109q-13 86 62 123q18 8 38 13q-88 21 -100 93q-3 21 0 43l16 110q14 89 -33 113q-26 13 -74 14v89q201 0 226 -122q8 -41 -1 -95l-17 -96q-12 -66 43 -93q27 -13 66 -13v-87q-96 0 -109 -67q-4 -18 0 -39l17 -96 q31 -181 -141 -211q-38 -6 -84 -6z" glyph-name="braceright" horiz-adv-x="396" unicode="}"/>
<glyph d="M38 220q7 113 78 145q21 10 44 10q40 0 100 -32q32 -16 45 -16q34 0 43 39q1 6 2 11h86q-5 -105 -70 -142q-24 -14 -50 -14q-42 0 -102 32q-31 17 -45 17q-35 0 -44 -43q-1 -4 -1 -7h-86z" glyph-name="asciitilde" horiz-adv-x="474" unicode="~"/>
<glyph glyph-name="uni00A0" horiz-adv-x="271" unicode=" "/>
<glyph d="M85 -117l19 500h97l19 -500h-135zM153 450q-47 0 -71 40q-10 18 -10 38q0 44 40 67q20 10 41 10q47 0 71 -39q10 -18 10 -38q0 -46 -42 -68q-19 -10 -39 -10z" glyph-name="exclamdown" horiz-adv-x="306" unicode="¡"/>
<glyph d="M270 -135v127q-130 12 -192 111q-41 65 -41 153v8q0 136 96 213q59 46 137 55v97h67v-97q132 -11 183 -109q20 -38 25 -85h-114q-14 83 -94 100v-356q71 13 94 78q6 17 8 35h109q-9 -110 -98 -167q-50 -30 -113 -36v-127h-67zM159 256q0 -125 83 -163q14 -6 28 -9v353 q-75 -18 -101 -100q-10 -34 -10 -73v-8z" glyph-name="cent" horiz-adv-x="577" unicode="¢"/>
<glyph d="M42 304v85h60q-16 65 -16 120q0 113 92 173q64 42 150 42q162 0 216 -119q18 -40 22 -90h-125q-15 85 -72 101q-17 5 -38 5q-71 0 -99 -59q-12 -26 -12 -58q0 -49 13 -115h199v-85h-182q10 -54 10 -102q0 -31 -12 -63q21 -6 60 -20q58 -21 80 -21q74 0 80 73v2h117 q-6 -114 -85 -159q-39 -23 -90 -23q-53 0 -140 36q-54 23 -77 23q-47 0 -58 -42q-1 -5 -1 -8h-104q7 85 66 126q18 12 39 18q10 29 10 59q0 41 -18 101h-85z" glyph-name="sterling" horiz-adv-x="620" unicode="£"/>
<glyph d="M76 286v63h149l-204 366h145l147 -288l141 288h128l-192 -366h150v-63h-166v-67h166v-64h-166v-155h-132v155h-166v64h166v67h-166z" glyph-name="yen" horiz-adv-x="604" unicode="¥"/>
<glyph d="M84 -148v447h90v-447h-90zM84 369v407h90v-407h-90z" glyph-name="brokenbar" horiz-adv-x="264" unicode="¦"/>
<glyph d="M276 -137q-132 0 -180 88q-19 37 -21 83h116q8 -80 86 -81q70 0 82 54q2 10 2 19q0 39 -39 60q-29 14 -88 29q-137 34 -177 95q-23 36 -23 85q0 84 82 124q14 6 29 11q-55 45 -55 123q0 89 78 138q53 33 121 33q134 0 179 -92q16 -33 18 -75h-115q-6 69 -65 76 q-9 1 -18 1q-69 0 -81 -55q-2 -10 -2 -19q0 -39 34 -58q28 -15 88 -30q126 -32 169 -79q36 -40 36 -102q0 -76 -74 -119q-17 -10 -36 -17q54 -44 54 -122q0 -85 -74 -135q-54 -35 -126 -35zM343 200q70 19 71 76q0 42 -49 64q-23 10 -66 23l-77 22q-58 -12 -68 -60 q-2 -8 -2 -16q0 -41 54 -65q23 -10 62 -21z" glyph-name="section" horiz-adv-x="565" unicode="§"/>
<glyph d="M101 613q-40 0 -58 35q-8 15 -8 30q0 38 34 57q16 8 32 8q39 0 58 -35q8 -15 8 -30q0 -39 -36 -58q-14 -7 -30 -7zM299 613q-41 0 -59 36q-7 14 -7 29q0 39 35 57q15 8 31 8q39 0 58 -35q8 -15 8 -30q0 -39 -36 -58q-14 -7 -30 -7z" glyph-name="dieresis" horiz-adv-x="400" unicode="¨"/>
<glyph d="M425 153q-131 0 -179 98q-21 44 -21 102v8q0 109 80 165q51 36 118 36q119 0 160 -83q14 -28 17 -63h-96q-12 69 -81 70q-72 0 -92 -75q-6 -23 -6 -50v-7q0 -110 80 -123q10 -1 19 -1q74 0 87 66q1 4 1 8h92q-8 -106 -103 -139q-35 -12 -76 -12zM421 32q132 0 224 90 q97 95 97 237q0 146 -100 240q-91 84 -219 84q-138 0 -230 -94q-91 -93 -91 -232q0 -148 103 -242q91 -83 216 -83zM421 -13q-152 0 -259 102q-108 101 -114 252v16q0 151 103 257q102 106 253 114h19q156 0 263 -105q105 -102 110 -252v-12q0 -154 -105 -261 q-104 -105 -256 -111h-14z" glyph-name="copyright" horiz-adv-x="843" unicode="©"/>
<glyph d="M169 289q-95 0 -128 65q-12 26 -12 59q2 131 215 132h51v22q0 69 -57 75q-7 1 -13 1q-64 -1 -75 -59h-104q7 101 109 130q34 10 75 10q172 -2 173 -155v-271h-107v50q-43 -58 -127 -59zM200 368q68 0 89 46q6 14 6 30v37h-48q-108 -1 -109 -61q2 -51 62 -52z" glyph-name="ordfeminine" horiz-adv-x="444" unicode="ª"/>
<glyph d="M176 78l-128 183l128 183h95l-123 -183l123 -183h-95zM355 78l-128 183l128 183h95l-123 -183l123 -183h-95z" glyph-name="guillemotleft" horiz-adv-x="492" unicode="«"/>
<glyph d="M178 396v219h82q86 -2 87 -68v-1q-1 -43 -42 -59l55 -91h-59l-48 81h-19v-81h-56zM234 515h24q33 2 34 28v1q-2 27 -34 28h-24v-57zM258 319q93 0 146 69q37 49 37 115q0 99 -74 151q-47 33 -109 33q-98 0 -150 -73q-34 -48 -34 -112q0 -98 74 -150q48 -33 110 -33z M258 281q-104 0 -170 75q-55 63 -55 146q0 101 76 168q64 55 149 55q105 0 171 -77q53 -63 53 -145q0 -104 -77 -169q-64 -53 -147 -53z" glyph-name="registered" horiz-adv-x="515" unicode="®"/>
<glyph d="M60 634v78h280v-78h-280z" glyph-name="macron" horiz-adv-x="400" unicode="¯"/>
<glyph d="M219 459q54 0 79 50q11 23 11 50q0 63 -45 90q-21 12 -45 12q-55 0 -81 -50q-12 -24 -12 -52q0 -59 45 -87q22 -13 48 -13zM219 396q-83 0 -133 63q-36 45 -36 100q0 80 64 129q46 36 105 36q82 0 132 -63q36 -45 36 -102q0 -78 -63 -127q-47 -36 -105 -36z" glyph-name="degree" horiz-adv-x="437" unicode="°"/>
<glyph d="M219 157v175h-182v94h182v176h101v-176h183v-94h-183v-175h-101zM37 0v89h467v-89h-467z" glyph-name="plusminus" horiz-adv-x="539" unicode="±"/>
<glyph d="M7 360v13l128 135q58 61 59 99q-2 42 -42 43q-44 0 -52 -59v-2h-85q5 98 87 123q25 8 54 8q96 0 122 -68q7 -19 7 -41q-1 -60 -70 -126l-58 -57h131v-68h-281z" glyph-name="twosuperior" horiz-adv-x="313" unicode="²"/>
<glyph d="M166 354q-117 0 -141 86q-4 16 -5 34h83q7 -53 58 -54q53 2 54 47q0 45 -54 45h-28v58h27q51 2 52 43q-6 37 -45 40q-45 0 -53 -43q-1 -3 -1 -5h-83q6 74 72 102q30 13 67 13q93 0 122 -58q9 -18 9 -39q-1 -57 -61 -77q56 -11 68 -60q2 -11 2 -22q0 -74 -75 -100 q-30 -10 -68 -10z" glyph-name="threesuperior" horiz-adv-x="336" unicode="³"/>
<glyph d="M148 601l59 155h134l-104 -155h-89z" glyph-name="acute" horiz-adv-x="400" unicode="´"/>
<glyph d="M268 -100v439h-11q-148 0 -198 94q-21 39 -21 91q0 126 109 171q48 20 110 20h232v-815h-72v755h-78v-755h-71z" glyph-name="paragraph" horiz-adv-x="573" unicode="¶"/>
<glyph d="M144 248q-47 0 -69 41q-10 18 -10 38q0 47 41 69q18 9 38 9q48 0 71 -40q9 -18 9 -38q0 -46 -40 -69q-19 -10 -40 -10z" glyph-name="periodcentered" horiz-adv-x="289" unicode="·"/>
<glyph d="M206 -219q-77 0 -102 58q-6 15 -8 30h66q12 -29 40 -33q33 6 37 34q0 26 -26 31q-5 1 -9 1q-17 0 -30 -9l-34 32l44 75h60l-29 -50q58 7 85 -33q15 -21 15 -50q0 -60 -62 -79q-22 -7 -47 -7z" glyph-name="cedilla" horiz-adv-x="400" unicode="¸"/>
<glyph d="M104 360v265l-82 -51v78l94 63h82v-355h-94z" glyph-name="onesuperior" horiz-adv-x="253" unicode="¹"/>
<glyph d="M253 374q77 0 98 78q6 24 6 52v6q0 97 -65 122q-18 7 -39 7q-76 0 -98 -74q-8 -25 -8 -55v-6q0 -101 69 -124q17 -6 37 -6zM252 289q-112 0 -174 78q-44 56 -44 134v6q0 116 85 177q57 40 134 40q112 0 173 -78q44 -57 44 -135v-6q0 -116 -85 -176q-57 -40 -133 -40z" glyph-name="ordmasculine" horiz-adv-x="504" unicode="º"/>
<glyph d="M43 78l123 183l-123 183h95l128 -183l-128 -183h-95zM221 78l123 183l-123 183h95l128 -183l-128 -183h-95z" glyph-name="guillemotright" horiz-adv-x="492" unicode="»"/>
<glyph d="M107 360v265l-82 -51v78l94 63h82v-355h-94zM55 0l528 715h77l-528 -715h-77zM566 0v69h-178v34l154 252h113v-222h46v-64h-46v-69h-89zM477 133h91v157z" glyph-name="onequarter" horiz-adv-x="724" unicode="¼"/>
<glyph d="M42 0l528 715h77l-528 -715h-77zM107 360v265l-82 -51v78l94 63h82v-355h-94zM418 0v13l128 135q58 61 59 99q-2 42 -42 43q-44 0 -52 -59v-2h-85q5 100 90 124q24 7 51 7q96 0 122 -68q7 -19 7 -41q-1 -60 -70 -126l-58 -57h131v-68h-281z" glyph-name="onehalf" horiz-adv-x="728" unicode="½"/>
<glyph d="M169 354q-117 0 -141 86q-4 16 -5 34h83q7 -53 58 -54q53 2 54 47q0 45 -54 45h-28v58h27q51 2 52 43q-6 37 -45 40q-45 0 -53 -43q-1 -3 -1 -5h-83q6 74 72 102q30 13 67 13q93 0 122 -58q9 -18 9 -39q-1 -57 -61 -77q56 -11 68 -60q2 -11 2 -22q0 -74 -75 -100 q-30 -10 -68 -10zM96 0l528 715h77l-528 -715h-77zM577 0v69h-178v34l154 252h113v-222h46v-64h-46v-69h-89zM488 133h91v157z" glyph-name="threequarters" horiz-adv-x="738" unicode="¾"/>
<glyph d="M340 383v-38q0 -71 -67 -142l-33 -33q-59 -56 -68 -93q-2 -10 -2 -20q6 -81 88 -84q72 0 101 67q8 21 11 46h116q-6 -121 -99 -178q-58 -34 -135 -34q-143 0 -191 93q-19 37 -19 82q0 69 66 137q9 10 22 23q60 58 76 81q21 31 23 61v32h111zM286 606q48 0 71 -40 q10 -18 10 -38q0 -46 -41 -68q-19 -10 -40 -10q-47 0 -71 40q-10 18 -10 38q0 44 40 67q20 11 41 11z" glyph-name="questiondown" horiz-adv-x="516" unicode="¿"/>
<glyph d="M27 0l239 715h174l236 -715h-138l-57 177h-273l-56 -177h-125zM345 606l-106 -332h211zM311 766l-98 135h136l53 -135h-91z" glyph-name="Agrave" horiz-adv-x="703" unicode="À"/>
<glyph d="M27 0l239 715h174l236 -715h-138l-57 177h-273l-56 -177h-125zM345 606l-106 -332h211zM298 766l54 135h136l-99 -135h-91z" glyph-name="Aacute" horiz-adv-x="703" unicode="Á"/>
<glyph d="M27 0l239 715h174l236 -715h-138l-57 177h-273l-56 -177h-125zM345 606l-106 -332h211zM188 766l111 135h104l108 -135h-88l-74 55l-75 -55h-86z" glyph-name="Acircumflex" horiz-adv-x="703" unicode="Â"/>
<glyph d="M27 0l239 715h174l236 -715h-138l-57 177h-273l-56 -177h-125zM345 606l-106 -332h211zM408 768q-27 0 -75 26q-25 13 -37 13q-24 0 -34 -30q-2 -5 -3 -10h-76q8 91 67 121q20 10 42 10q25 0 73 -26q27 -14 40 -14q25 0 34 32l2 8h77q-9 -91 -68 -120q-20 -10 -42 -10z " glyph-name="Atilde" horiz-adv-x="703" unicode="Ã"/>
<glyph d="M27 0l239 715h174l236 -715h-138l-57 177h-273l-56 -177h-125zM345 606l-106 -332h211zM244 777q-40 0 -58 35q-8 15 -8 30q0 39 36 58q14 7 30 7q40 0 58 -35q8 -15 8 -30q0 -39 -36 -58q-14 -7 -30 -7zM455 777q-40 0 -58 35q-8 15 -8 30q0 39 36 58q14 7 30 7 q40 0 58 -35q8 -15 8 -30q0 -39 -36 -58q-14 -7 -30 -7z" glyph-name="Adieresis" horiz-adv-x="703" unicode="Ä"/>
<glyph d="M27 0l239 715h174l236 -715h-138l-57 177h-273l-56 -177h-125zM350 753q-61 0 -94 49q-18 28 -18 60q0 58 49 90q29 19 63 19q61 0 94 -49q18 -28 18 -60q0 -58 -49 -90q-29 -19 -63 -19zM345 606l-106 -332h211zM350 807q35 0 47 34q3 10 3 21q0 40 -32 52q-9 3 -18 3 q-37 0 -47 -35q-3 -10 -3 -20q0 -41 33 -52q9 -3 17 -3z" glyph-name="Aring" horiz-adv-x="703" unicode="Å"/>
<glyph d="M22 0l351 715h543v-105h-312v-196h250v-100h-250v-209h329v-105h-462v183h-232l-87 -183h-130zM444 610l-159 -332h186v332h-27z" glyph-name="AE" horiz-adv-x="971" unicode="Æ"/>
<glyph d="M380 -219q-77 0 -102 58q-6 15 -8 30h66q12 -29 40 -33q33 6 37 34q0 26 -26 31q-5 1 -9 1q-17 0 -30 -9l-34 32l39 67q-185 16 -262 161q-45 85 -45 200v8q0 167 107 271q97 94 240 94q170 0 252 -104q47 -61 55 -146h-135q-31 140 -171 144q-116 0 -172 -100 q-36 -65 -36 -158v-8q0 -169 102 -229q46 -27 107 -27q126 0 168 97q11 25 15 54h130q-22 -171 -165 -232q-58 -24 -131 -27l-23 -40q58 7 85 -33q15 -21 15 -50q0 -60 -62 -79q-22 -7 -47 -7z" glyph-name="Ccedilla" horiz-adv-x="741" unicode="Ç"/>
<glyph d="M274 766l-98 135h136l53 -135h-91zM82 0v715h447v-105h-314v-196h252v-100h-252v-209h331v-105h-464z" glyph-name="Egrave" horiz-adv-x="584" unicode="È"/>
<glyph d="M261 766l54 135h136l-99 -135h-91zM82 0v715h447v-105h-314v-196h252v-100h-252v-209h331v-105h-464z" glyph-name="Eacute" horiz-adv-x="584" unicode="É"/>
<glyph d="M151 766l111 135h104l108 -135h-88l-74 55l-75 -55h-86zM82 0v715h447v-105h-314v-196h252v-100h-252v-209h331v-105h-464z" glyph-name="Ecircumflex" horiz-adv-x="584" unicode="Ê"/>
<glyph d="M82 0v715h447v-105h-314v-196h252v-100h-252v-209h331v-105h-464zM207 777q-40 0 -58 35q-8 15 -8 30q0 39 36 58q14 7 30 7q40 0 58 -35q8 -15 8 -30q0 -39 -36 -58q-14 -7 -30 -7zM418 777q-40 0 -58 35q-8 15 -8 30q0 39 36 58q14 7 30 7q40 0 58 -35q8 -15 8 -30 q0 -39 -36 -58q-14 -7 -30 -7z" glyph-name="Edieresis" horiz-adv-x="584" unicode="Ë"/>
<glyph d="M86 0v715h134v-715h-134zM114 766l-98 135h136l53 -135h-91z" glyph-name="Igrave" horiz-adv-x="307" unicode="Ì"/>
<glyph d="M86 0v715h134v-715h-134zM101 766l54 135h136l-99 -135h-91z" glyph-name="Iacute" horiz-adv-x="307" unicode="Í"/>
<glyph d="M86 0v715h134v-715h-134zM-9 766l111 135h104l108 -135h-88l-74 55l-75 -55h-86z" glyph-name="Icircumflex" horiz-adv-x="307" unicode="Î"/>
<glyph d="M86 0v715h134v-715h-134zM47 777q-40 0 -58 35q-8 15 -8 30q0 39 36 58q14 7 30 7q40 0 58 -35q8 -15 8 -30q0 -39 -36 -58q-14 -7 -30 -7zM258 777q-40 0 -58 35q-8 15 -8 30q0 39 36 58q14 7 30 7q40 0 58 -35q8 -15 8 -30q0 -39 -36 -58q-14 -7 -30 -7z" glyph-name="Idieresis" horiz-adv-x="307" unicode="Ï"/>
<glyph d="M32 311v95h69v309h217q232 0 323 -155q47 -82 47 -195v-9q0 -198 -132 -291q-94 -65 -239 -65h-216v311h-69zM233 105h80q198 0 230 179q6 34 6 71v8q-2 246 -237 247h-79v-204h173v-95h-173v-206z" glyph-name="Eth" horiz-adv-x="739" unicode="Ð"/>
<glyph d="M443 768q-27 0 -75 26q-25 13 -37 13q-24 0 -34 -30q-2 -5 -3 -10h-76q8 91 67 121q20 10 42 10q25 0 73 -26q27 -14 40 -14q25 0 34 32l2 8h77q-9 -91 -68 -120q-20 -10 -42 -10zM82 0v715h159l301 -517v517h121v-715h-138l-322 548v-548h-121z" glyph-name="Ntilde" horiz-adv-x="745" unicode="Ñ"/>
<glyph d="M367 766l-98 135h136l53 -135h-91zM410 97q121 0 181 99q39 66 39 159v8q0 137 -83 208q-57 48 -139 48q-129 0 -188 -105q-35 -64 -35 -152v-8q0 -138 87 -210q59 -47 138 -47zM408 -10q-170 0 -272 114q-90 101 -90 249v8q0 161 106 265q102 99 256 99q166 0 268 -110 q92 -101 92 -251v-8q0 -164 -105 -268q-101 -98 -255 -98z" glyph-name="Ograve" unicode="Ò"/>
<glyph d="M354 766l54 135h136l-99 -135h-91zM410 97q121 0 181 99q39 66 39 159v8q0 137 -83 208q-57 48 -139 48q-129 0 -188 -105q-35 -64 -35 -152v-8q0 -138 87 -210q59 -47 138 -47zM408 -10q-170 0 -272 114q-90 101 -90 249v8q0 161 106 265q102 99 256 99q166 0 268 -110 q92 -101 92 -251v-8q0 -164 -105 -268q-101 -98 -255 -98z" glyph-name="Oacute" unicode="Ó"/>
<glyph d="M244 766l111 135h104l108 -135h-88l-74 55l-75 -55h-86zM410 97q121 0 181 99q39 66 39 159v8q0 137 -83 208q-57 48 -139 48q-129 0 -188 -105q-35 -64 -35 -152v-8q0 -138 87 -210q59 -47 138 -47zM408 -10q-170 0 -272 114q-90 101 -90 249v8q0 161 106 265 q102 99 256 99q166 0 268 -110q92 -101 92 -251v-8q0 -164 -105 -268q-101 -98 -255 -98z" glyph-name="Ocircumflex" unicode="Ô"/>
<glyph d="M464 768q-27 0 -75 26q-25 13 -37 13q-24 0 -34 -30q-2 -5 -3 -10h-76q8 91 67 121q20 10 42 10q25 0 73 -26q27 -14 40 -14q25 0 34 32l2 8h77q-9 -91 -68 -120q-20 -10 -42 -10zM410 97q121 0 181 99q39 66 39 159v8q0 137 -83 208q-57 48 -139 48q-129 0 -188 -105 q-35 -64 -35 -152v-8q0 -138 87 -210q59 -47 138 -47zM408 -10q-170 0 -272 114q-90 101 -90 249v8q0 161 106 265q102 99 256 99q166 0 268 -110q92 -101 92 -251v-8q0 -164 -105 -268q-101 -98 -255 -98z" glyph-name="Otilde" unicode="Õ"/>
<glyph d="M300 777q-40 0 -58 35q-8 15 -8 30q0 39 36 58q14 7 30 7q40 0 58 -35q8 -15 8 -30q0 -39 -36 -58q-14 -7 -30 -7zM511 777q-40 0 -58 35q-8 15 -8 30q0 39 36 58q14 7 30 7q40 0 58 -35q8 -15 8 -30q0 -39 -36 -58q-14 -7 -30 -7zM410 97q121 0 181 99q39 66 39 159v8 q0 137 -83 208q-57 48 -139 48q-129 0 -188 -105q-35 -64 -35 -152v-8q0 -138 87 -210q59 -47 138 -47zM408 -10q-170 0 -272 114q-90 101 -90 249v8q0 161 106 265q102 99 256 99q166 0 268 -110q92 -101 92 -251v-8q0 -164 -105 -268q-101 -98 -255 -98z" glyph-name="Odieresis" unicode="Ö"/>
<glyph d="M101 115l-66 66l154 153l-155 154l66 67l154 -155l154 154l66 -66l-154 -154l155 -154l-67 -66l-154 155z" glyph-name="multiply" horiz-adv-x="509" unicode="×"/>
<glyph d="M84 -33l-50 51l91 98q-79 98 -79 237v8q0 162 106 265q103 98 256 98q127 -1 219 -67l78 84l50 -50l-75 -81q89 -101 89 -246v-8q0 -164 -105 -268q-101 -98 -256 -98q-137 1 -232 76zM409 97q124 0 184 101q38 66 38 158v8q0 91 -37 154l-336 -364q61 -57 151 -57z M184 354q0 -82 31 -141l333 359q-57 47 -140 47q-130 0 -188 -105q-36 -64 -36 -152v-8z" glyph-name="Oslash" unicode="Ø"/>
<glyph d="M321 766l-98 135h136l53 -135h-91zM357 -10q-196 0 -257 146q-24 59 -24 136v443h134v-433q0 -135 69 -170q31 -15 79 -15q102 0 135 71q20 45 20 123v424h134v-435q0 -211 -161 -270q-57 -20 -129 -20z" glyph-name="Ugrave" horiz-adv-x="723" unicode="Ù"/>
<glyph d="M308 766l54 135h136l-99 -135h-91zM357 -10q-196 0 -257 146q-24 59 -24 136v443h134v-433q0 -135 69 -170q31 -15 79 -15q102 0 135 71q20 45 20 123v424h134v-435q0 -211 -161 -270q-57 -20 -129 -20z" glyph-name="Uacute" horiz-adv-x="723" unicode="Ú"/>
<glyph d="M198 766l111 135h104l108 -135h-88l-74 55l-75 -55h-86zM357 -10q-196 0 -257 146q-24 59 -24 136v443h134v-433q0 -135 69 -170q31 -15 79 -15q102 0 135 71q20 45 20 123v424h134v-435q0 -211 -161 -270q-57 -20 -129 -20z" glyph-name="Ucircumflex" horiz-adv-x="723" unicode="Û"/>
<glyph d="M357 -10q-196 0 -257 146q-24 59 -24 136v443h134v-433q0 -135 69 -170q31 -15 79 -15q102 0 135 71q20 45 20 123v424h134v-435q0 -211 -161 -270q-57 -20 -129 -20zM254 777q-40 0 -58 35q-8 15 -8 30q0 39 36 58q14 7 30 7q40 0 58 -35q8 -15 8 -30q0 -39 -36 -58 q-14 -7 -30 -7zM465 777q-40 0 -58 35q-8 15 -8 30q0 39 36 58q14 7 30 7q40 0 58 -35q8 -15 8 -30q0 -39 -36 -58q-14 -7 -30 -7z" glyph-name="Udieresis" horiz-adv-x="723" unicode="Ü"/>
<glyph d="M254 0v310l-237 405h147l161 -296l157 296h130l-224 -406v-309h-134zM265 766l54 135h136l-99 -135h-91z" glyph-name="Yacute" horiz-adv-x="629" unicode="Ý"/>
<glyph d="M82 0v715h133v-127h97q221 0 258 -152q7 -30 7 -63v-4q0 -157 -147 -201q-51 -15 -115 -15h-100v-153h-133zM215 250h97q134 2 135 119v4q0 101 -101 113q-16 2 -34 2h-97v-238z" glyph-name="Thorn" horiz-adv-x="609" unicode="Þ"/>
<glyph d="M353 -9q-56 0 -93 14v96q35 -15 72 -15q116 2 117 137v7q0 106 -92 140q-36 13 -82 12v95q94 -2 120 68q8 20 8 42v4q0 81 -78 93q-13 2 -26 2q-70 0 -96 -63q-10 -26 -10 -57v-566h-121v557q0 122 96 181q59 36 136 36q130 0 185 -81q29 -43 29 -100v-3q0 -73 -61 -122 q-26 -20 -58 -31q102 -25 148 -108q26 -48 26 -104v-6q0 -165 -126 -212q-43 -16 -94 -16z" glyph-name="germandbls" horiz-adv-x="608" unicode="ß"/>
<glyph d="M209 -10q-116 0 -157 77q-18 34 -18 78q0 133 179 160q41 6 89 6h65v27q0 84 -55 100q-18 5 -40 5q-90 -2 -100 -82h-117q10 123 130 160q43 13 94 13q192 0 208 -162q1 -14 1 -29v-343h-119v64q-57 -74 -160 -74zM238 77q83 0 116 54q13 24 13 52v52h-62 q-146 -6 -151 -85q2 -72 84 -73zM240 601l-104 155h134l59 -155h-89z" glyph-name="agrave" horiz-adv-x="555" unicode="à"/>
<glyph d="M209 -10q-116 0 -157 77q-18 34 -18 78q0 133 179 160q41 6 89 6h65v27q0 84 -55 100q-18 5 -40 5q-90 -2 -100 -82h-117q10 123 130 160q43 13 94 13q192 0 208 -162q1 -14 1 -29v-343h-119v64q-57 -74 -160 -74zM238 77q83 0 116 54q13 24 13 52v52h-62 q-146 -6 -151 -85q2 -72 84 -73zM229 601l59 155h134l-104 -155h-89z" glyph-name="aacute" horiz-adv-x="555" unicode="á"/>
<glyph d="M209 -10q-116 0 -157 77q-18 34 -18 78q0 133 179 160q41 6 89 6h65v27q0 84 -55 100q-18 5 -40 5q-90 -2 -100 -82h-117q10 123 130 160q43 13 94 13q192 0 208 -162q1 -14 1 -29v-343h-119v64q-57 -74 -160 -74zM238 77q83 0 116 54q13 24 13 52v52h-62 q-146 -6 -151 -85q2 -72 84 -73zM109 602l114 151h96l111 -151h-86l-75 68l-76 -68h-84z" glyph-name="acircumflex" horiz-adv-x="555" unicode="â"/>
<glyph d="M209 -10q-116 0 -157 77q-18 34 -18 78q0 133 179 160q41 6 89 6h65v27q0 84 -55 100q-18 5 -40 5q-90 -2 -100 -82h-117q10 123 130 160q43 13 94 13q192 0 208 -162q1 -14 1 -29v-343h-119v64q-57 -74 -160 -74zM238 77q83 0 116 54q13 24 13 52v52h-62 q-146 -6 -151 -85q2 -72 84 -73zM337 606q-27 0 -74 26q-25 14 -37 14q-24 0 -34 -30q-2 -5 -3 -10h-75q9 96 70 123q18 8 37 8q25 0 72 -25q27 -14 40 -14q26 0 35 33q0 4 1 7h75q-9 -94 -68 -123q-19 -9 -39 -9z" glyph-name="atilde" horiz-adv-x="555" unicode="ã"/>
<glyph d="M209 -10q-116 0 -157 77q-18 34 -18 78q0 133 179 160q41 6 89 6h65v27q0 84 -55 100q-18 5 -40 5q-90 -2 -100 -82h-117q10 123 130 160q43 13 94 13q192 0 208 -162q1 -14 1 -29v-343h-119v64q-57 -74 -160 -74zM238 77q83 0 116 54q13 24 13 52v52h-62 q-146 -6 -151 -85q2 -72 84 -73zM180 613q-40 0 -58 35q-8 15 -8 30q0 38 34 57q16 8 32 8q39 0 58 -35q8 -15 8 -30q0 -39 -36 -58q-14 -7 -30 -7zM378 613q-41 0 -59 36q-7 14 -7 29q0 39 35 57q15 8 31 8q39 0 58 -35q8 -15 8 -30q0 -39 -36 -58q-14 -7 -30 -7z" glyph-name="adieresis" horiz-adv-x="555" unicode="ä"/>
<glyph d="M209 -10q-116 0 -157 77q-18 34 -18 78q0 133 179 160q41 6 89 6h65v27q0 84 -55 100q-18 5 -40 5q-90 -2 -100 -82h-117q10 123 130 160q43 13 94 13q192 0 208 -162q1 -14 1 -29v-343h-119v64q-57 -74 -160 -74zM238 77q83 0 116 54q13 24 13 52v52h-62 q-146 -6 -151 -85q2 -72 84 -73zM279 643q34 0 46 33q4 11 4 22q0 40 -32 52q-9 3 -18 3q-35 0 -47 -34q-3 -10 -3 -21q0 -38 31 -51q9 -4 19 -4zM279 590q-59 0 -93 49q-18 27 -18 59q0 57 49 89q29 19 62 19q59 0 93 -49q18 -27 18 -59q0 -57 -49 -89q-29 -19 -62 -19z " glyph-name="aring" horiz-adv-x="555" unicode="å"/>
<glyph d="M620 -10q-135 1 -199 100q-60 -88 -168 -98q-18 -2 -37 -2q-123 0 -165 79q-17 33 -17 76q0 126 158 159q48 10 108 10h68v24q0 92 -70 103q-12 2 -25 2q-91 -2 -101 -82h-117q10 121 127 159q43 14 94 14q122 -1 166 -76q66 76 173 76q130 0 195 -93q46 -67 46 -171v-33 h-372q6 -140 112 -155q12 -2 25 -2q101 1 116 80h116q-18 -118 -134 -156q-45 -14 -99 -14zM239 77q85 0 116 56q13 22 13 50v53h-65q-141 0 -148 -74q-1 -5 -1 -10q2 -74 85 -75zM486 314h250q-12 131 -121 132q-81 0 -115 -78q-10 -25 -14 -54z" glyph-name="ae" horiz-adv-x="891" unicode="æ"/>
<glyph d="M283 -219q-77 0 -102 58q-6 15 -8 30h66q12 -29 40 -33q33 6 37 34q0 26 -26 31q-5 1 -9 1q-17 0 -30 -9l-34 32l40 68q-125 17 -184 116q-36 63 -36 146v8q0 137 95 214q72 57 169 57q145 0 206 -95q27 -43 33 -101h-117q-16 98 -120 99q-84 0 -121 -75q-21 -41 -21 -97 v-8q0 -130 88 -164q26 -10 57 -10q75 0 109 57q14 25 17 55h111q-9 -114 -101 -169q-55 -33 -127 -36l-23 -40q58 7 85 -33q15 -21 15 -50q0 -60 -62 -79q-22 -7 -47 -7z" glyph-name="ccedilla" horiz-adv-x="575" unicode="ç"/>
<glyph d="M302 -10q-137 0 -210 93q-55 71 -55 173v8q0 136 93 213q70 57 167 57q131 0 198 -91q49 -68 49 -173v-35h-383q5 -128 104 -151q19 -4 40 -4q105 1 120 80h117q-18 -119 -138 -156q-46 -14 -102 -14zM163 316h261q-10 129 -127 130q-86 0 -121 -81q-9 -23 -13 -49z M256 601l-104 155h134l59 -155h-89z" glyph-name="egrave" horiz-adv-x="580" unicode="è"/>
<glyph d="M245 601l59 155h134l-104 -155h-89zM302 -10q-137 0 -210 93q-55 71 -55 173v8q0 136 93 213q70 57 167 57q131 0 198 -91q49 -68 49 -173v-35h-383q5 -128 104 -151q19 -4 40 -4q105 1 120 80h117q-18 -119 -138 -156q-46 -14 -102 -14zM163 316h261q-10 129 -127 130 q-86 0 -121 -81q-9 -23 -13 -49z" glyph-name="eacute" horiz-adv-x="580" unicode="é"/>
<glyph d="M134 602l114 151h96l111 -151h-86l-75 68l-76 -68h-84zM302 -10q-137 0 -210 93q-55 71 -55 173v8q0 136 93 213q70 57 167 57q131 0 198 -91q49 -68 49 -173v-35h-383q5 -128 104 -151q19 -4 40 -4q105 1 120 80h117q-18 -119 -138 -156q-46 -14 -102 -14zM163 316h261 q-10 129 -127 130q-86 0 -121 -81q-9 -23 -13 -49z" glyph-name="ecircumflex" horiz-adv-x="580" unicode="ê"/>
<glyph d="M196 613q-40 0 -58 35q-8 15 -8 30q0 38 34 57q16 8 32 8q39 0 58 -35q8 -15 8 -30q0 -39 -36 -58q-14 -7 -30 -7zM394 613q-41 0 -59 36q-7 14 -7 29q0 39 35 57q15 8 31 8q39 0 58 -35q8 -15 8 -30q0 -39 -36 -58q-14 -7 -30 -7zM302 -10q-137 0 -210 93 q-55 71 -55 173v8q0 136 93 213q70 57 167 57q131 0 198 -91q49 -68 49 -173v-35h-383q5 -128 104 -151q19 -4 40 -4q105 1 120 80h117q-18 -119 -138 -156q-46 -14 -102 -14zM163 316h261q-10 129 -127 130q-86 0 -121 -81q-9 -23 -13 -49z" glyph-name="edieresis" horiz-adv-x="580" unicode="ë"/>
<glyph d="M75 0v523h121v-523h-121zM97 601l-104 155h134l59 -155h-89z" glyph-name="igrave" horiz-adv-x="271" unicode="ì"/>
<glyph d="M86 601l59 155h134l-104 -155h-89zM75 0v523h121v-523h-121z" glyph-name="iacute" horiz-adv-x="271" unicode="í"/>
<glyph d="M-25 602l114 151h96l111 -151h-86l-75 68l-76 -68h-84zM75 0v523h121v-523h-121z" glyph-name="icircumflex" horiz-adv-x="271" unicode="î"/>
<glyph d="M39 613q-40 0 -58 35q-8 15 -8 30q0 38 34 57q16 8 32 8q39 0 58 -35q8 -15 8 -30q0 -39 -36 -58q-14 -7 -30 -7zM231 613q-40 0 -58 35q-8 15 -8 30q0 38 34 57q16 8 32 8q39 0 58 -35q8 -15 8 -30q0 -39 -36 -58q-14 -7 -30 -7zM75 0v523h121v-523h-121z" glyph-name="idieresis" horiz-adv-x="271" unicode="ï"/>
<glyph d="M168 566l-27 54l103 49q-52 46 -124 96h143q44 -25 75 -50l93 45l27 -54l-69 -34q165 -153 183 -339q2 -21 2 -41v-22q0 -142 -95 -221q-73 -59 -175 -59q-130 0 -206 90q-61 73 -61 179v10q0 128 87 204q66 58 150 58q80 -1 134 -61q-40 80 -117 155zM306 84 q91 0 127 82q17 40 17 91v8q0 118 -75 158q-31 16 -68 16q-94 0 -130 -84q-16 -39 -16 -89v-8q0 -118 76 -158q31 -16 69 -16z" glyph-name="eth" horiz-adv-x="611" unicode="ð"/>
<glyph d="M72 0v523h121v-83q34 69 117 88q25 6 52 6q133 0 168 -119q11 -38 11 -86v-329h-121v318q0 100 -76 113q-14 2 -28 2q-77 0 -108 -59q-15 -29 -15 -66v-308h-121zM361 606q-27 0 -74 26q-25 14 -37 14q-24 0 -34 -30q-2 -5 -3 -10h-75q9 96 70 123q18 8 37 8q25 0 72 -25 q27 -14 40 -14q26 0 35 33q0 4 1 7h75q-9 -94 -68 -123q-19 -9 -39 -9z" glyph-name="ntilde" horiz-adv-x="608" unicode="ñ"/>
<glyph d="M306 84q93 0 128 85q16 39 16 89v7q0 119 -77 159q-30 15 -67 15q-95 0 -130 -85q-15 -39 -15 -88v-8q0 -120 78 -159q30 -15 67 -15zM305 -10q-130 0 -206 89q-62 72 -62 177v8q0 135 95 212q73 58 174 58q129 0 206 -89q62 -73 62 -178v-8q0 -137 -96 -213 q-73 -56 -173 -56zM266 601l-104 155h134l59 -155h-89z" glyph-name="ograve" horiz-adv-x="611" unicode="ò"/>
<glyph d="M255 601l59 155h134l-104 -155h-89zM306 84q93 0 128 85q16 39 16 89v7q0 119 -77 159q-30 15 -67 15q-95 0 -130 -85q-15 -39 -15 -88v-8q0 -120 78 -159q30 -15 67 -15zM305 -10q-130 0 -206 89q-62 72 -62 177v8q0 135 95 212q73 58 174 58q129 0 206 -89 q62 -73 62 -178v-8q0 -137 -96 -213q-73 -56 -173 -56z" glyph-name="oacute" horiz-adv-x="611" unicode="ó"/>
<glyph d="M144 602l114 151h96l111 -151h-86l-75 68l-76 -68h-84zM306 84q93 0 128 85q16 39 16 89v7q0 119 -77 159q-30 15 -67 15q-95 0 -130 -85q-15 -39 -15 -88v-8q0 -120 78 -159q30 -15 67 -15zM305 -10q-130 0 -206 89q-62 72 -62 177v8q0 135 95 212q73 58 174 58 q129 0 206 -89q62 -73 62 -178v-8q0 -137 -96 -213q-73 -56 -173 -56z" glyph-name="ocircumflex" horiz-adv-x="611" unicode="ô"/>
<glyph d="M306 84q93 0 128 85q16 39 16 89v7q0 119 -77 159q-30 15 -67 15q-95 0 -130 -85q-15 -39 -15 -88v-8q0 -120 78 -159q30 -15 67 -15zM305 -10q-130 0 -206 89q-62 72 -62 177v8q0 135 95 212q73 58 174 58q129 0 206 -89q62 -73 62 -178v-8q0 -137 -96 -213 q-73 -56 -173 -56zM363 606q-27 0 -74 26q-25 14 -37 14q-24 0 -34 -30q-2 -5 -3 -10h-75q9 96 70 123q18 8 37 8q25 0 72 -25q27 -14 40 -14q26 0 35 33q0 4 1 7h75q-9 -94 -68 -123q-19 -9 -39 -9z" glyph-name="otilde" horiz-adv-x="611" unicode="õ"/>
<glyph d="M206 613q-40 0 -58 35q-8 15 -8 30q0 38 34 57q16 8 32 8q39 0 58 -35q8 -15 8 -30q0 -39 -36 -58q-14 -7 -30 -7zM404 613q-41 0 -59 36q-7 14 -7 29q0 39 35 57q15 8 31 8q39 0 58 -35q8 -15 8 -30q0 -39 -36 -58q-14 -7 -30 -7zM306 84q93 0 128 85q16 39 16 89v7 q0 119 -77 159q-30 15 -67 15q-95 0 -130 -85q-15 -39 -15 -88v-8q0 -120 78 -159q30 -15 67 -15zM305 -10q-130 0 -206 89q-62 72 -62 177v8q0 135 95 212q73 58 174 58q129 0 206 -89q62 -73 62 -178v-8q0 -137 -96 -213q-73 -56 -173 -56z" glyph-name="odieresis" horiz-adv-x="611" unicode="ö"/>
<glyph d="M270 71q-45 0 -67 39q-9 17 -9 36q0 45 39 66q18 9 37 9q43 0 66 -37q10 -18 10 -38q0 -43 -39 -65q-18 -10 -37 -10zM37 296v91h467v-91h-467zM270 461q-45 0 -67 39q-9 17 -9 36q0 46 39 67q18 9 37 9q44 0 66 -38q10 -18 10 -38q0 -43 -39 -65q-18 -10 -37 -10z" glyph-name="divide" horiz-adv-x="540" unicode="÷"/>
<glyph d="M69 -38l-47 42l73 79q-58 71 -58 173v8q0 135 95 212q73 58 174 58q91 -1 159 -48l67 73l47 -42l-67 -73q62 -72 62 -177v-8q0 -137 -96 -213q-73 -56 -173 -56q-95 1 -164 50zM306 84q94 0 129 85q16 38 16 88v8q0 54 -18 93l-222 -241q37 -33 95 -33zM161 258 q0 -48 14 -87l220 239q-39 30 -89 30q-94 0 -129 -85q-16 -39 -16 -89v-8z" glyph-name="oslash" horiz-adv-x="611" unicode="ø"/>
<glyph d="M247 -10q-124 0 -164 102q-16 41 -16 96v335h121v-321q0 -107 87 -114q8 -1 16 -1q72 0 105 55q17 30 17 70v311h121v-523h-121v82q-40 -78 -135 -90q-16 -2 -31 -2zM263 601l-104 155h134l59 -155h-89z" glyph-name="ugrave" horiz-adv-x="605" unicode="ù"/>
<glyph d="M252 601l59 155h134l-104 -155h-89zM247 -10q-124 0 -164 102q-16 41 -16 96v335h121v-321q0 -107 87 -114q8 -1 16 -1q72 0 105 55q17 30 17 70v311h121v-523h-121v82q-40 -78 -135 -90q-16 -2 -31 -2z" glyph-name="uacute" horiz-adv-x="605" unicode="ú"/>
<glyph d="M141 602l114 151h96l111 -151h-86l-75 68l-76 -68h-84zM247 -10q-124 0 -164 102q-16 41 -16 96v335h121v-321q0 -107 87 -114q8 -1 16 -1q72 0 105 55q17 30 17 70v311h121v-523h-121v82q-40 -78 -135 -90q-16 -2 -31 -2z" glyph-name="ucircumflex" horiz-adv-x="605" unicode="û"/>
<glyph d="M203 613q-40 0 -58 35q-8 15 -8 30q0 38 34 57q16 8 32 8q39 0 58 -35q8 -15 8 -30q0 -39 -36 -58q-14 -7 -30 -7zM401 613q-41 0 -59 36q-7 14 -7 29q0 39 35 57q15 8 31 8q39 0 58 -35q8 -15 8 -30q0 -39 -36 -58q-14 -7 -30 -7zM247 -10q-124 0 -164 102 q-16 41 -16 96v335h121v-321q0 -107 87 -114q8 -1 16 -1q72 0 105 55q17 30 17 70v311h121v-523h-121v82q-40 -78 -135 -90q-16 -2 -31 -2z" glyph-name="udieresis" horiz-adv-x="605" unicode="ü"/>
<glyph d="M130 -179l95 232l-207 470h131l139 -337l128 337h118l-285 -702h-119zM235 601l59 155h134l-104 -155h-89z" glyph-name="yacute" horiz-adv-x="553" unicode="ý"/>
<glyph d="M72 -179v944h121v-326q35 60 107 84q32 11 64 11q117 0 182 -90q50 -71 50 -176v-8q0 -151 -93 -224q-59 -46 -139 -46q-101 0 -156 70q-9 11 -15 22v-261h-121zM334 86q112 0 133 117q5 25 5 55v8q0 122 -79 160q-27 13 -60 13q-94 0 -129 -84q-15 -39 -15 -89v-8 q0 -140 101 -167q21 -5 44 -5z" glyph-name="thorn" horiz-adv-x="633" unicode="þ"/>
</font>
</defs>
</svg>
